<mxfile host="app.diagrams.net" modified="2020-10-27T11:52:57.884Z" agent="5.0 (Windows)" etag="T0wqWbXyZ3Jh74wwU6Jl" version="13.8.3" type="github">
  <diagram id="TjXNPVGMa2aLrhKhPF2r" name="Sayfa -1">
    <mxGraphModel dx="1630" dy="1133" grid="1" gridSize="10" guides="1" tooltips="1" connect="1" arrows="1" fold="1" page="1" pageScale="1" pageWidth="827" pageHeight="1169" math="0" shadow="0">
      <root>
        <mxCell id="0" />
        <mxCell id="1" parent="0" />
        <mxCell id="xj0LiSYW6MVtvXeree98-3" value="" style="edgeStyle=orthogonalEdgeStyle;rounded=0;orthogonalLoop=1;jettySize=auto;html=1;" parent="1" source="xj0LiSYW6MVtvXeree98-1" target="xj0LiSYW6MVtvXeree98-2" edge="1">
          <mxGeometry relative="1" as="geometry" />
        </mxCell>
        <mxCell id="xj0LiSYW6MVtvXeree98-1" value="&lt;div&gt;bu bir denemedir&lt;/div&gt;" style="rounded=0;whiteSpace=wrap;html=1;" parent="1" vertex="1">
          <mxGeometry x="260" y="200" width="120" height="60" as="geometry" />
        </mxCell>
        <mxCell id="xj0LiSYW6MVtvXeree98-5" value="" style="edgeStyle=orthogonalEdgeStyle;rounded=0;orthogonalLoop=1;jettySize=auto;html=1;" parent="1" source="xj0LiSYW6MVtvXeree98-2" target="xj0LiSYW6MVtvXeree98-4" edge="1">
          <mxGeometry relative="1" as="geometry" />
        </mxCell>
        <mxCell id="xj0LiSYW6MVtvXeree98-2" value="&lt;div&gt;bu denemenin yoludur&lt;/div&gt;" style="rounded=0;whiteSpace=wrap;html=1;" parent="1" vertex="1">
          <mxGeometry x="460" y="200" width="110" height="60" as="geometry" />
        </mxCell>
        <mxCell id="xj0LiSYW6MVtvXeree98-4" value="işlem gerektirmiyor" style="rhombus;whiteSpace=wrap;html=1;rounded=0;" parent="1" vertex="1">
          <mxGeometry x="475" y="320" width="80" height="100" as="geometry" />
        </mxCell>
        <mxCell id="xj0LiSYW6MVtvXeree98-6" value="&lt;div&gt;girdi alınıyor&lt;/div&gt;" style="shape=process;whiteSpace=wrap;html=1;backgroundOutline=1;size=0.16666666666666666;" parent="1" vertex="1">
          <mxGeometry x="360" y="750" width="120" height="60" as="geometry" />
        </mxCell>
        <mxCell id="xj0LiSYW6MVtvXeree98-7" value="" style="endArrow=classic;startArrow=classic;html=1;" parent="1" target="xj0LiSYW6MVtvXeree98-8" edge="1">
          <mxGeometry width="50" height="50" relative="1" as="geometry">
            <mxPoint x="420" y="750" as="sourcePoint" />
            <mxPoint x="420" y="610" as="targetPoint" />
          </mxGeometry>
        </mxCell>
        <mxCell id="xj0LiSYW6MVtvXeree98-8" value="girdi veriliyor" style="shape=process;whiteSpace=wrap;html=1;backgroundOutline=1;" parent="1" vertex="1">
          <mxGeometry x="360" y="580" width="120" height="60" as="geometry" />
        </mxCell>
        <mxCell id="OuxKP2YbhAzEaP6fQBJZ-1" value="" style="strokeWidth=2;html=1;shape=mxgraph.flowchart.annotation_2;align=left;labelPosition=right;pointerEvents=1;rotation=90;" vertex="1" parent="1">
          <mxGeometry x="490" y="400" width="50" height="100" as="geometry" />
        </mxCell>
      </root>
    </mxGraphModel>
  </diagram>
</mxfile>
